<?xml version="1.0" encoding="UTF-8" standalone="no"?>
<!-- Created with Inkscape (http://www.inkscape.org/) -->

<svg
   width="175.422mm"
   height="140.26414mm"
   viewBox="0 0 175.422 140.26415"
   version="1.1"
   id="svg302"
   xml:space="preserve"
   inkscape:version="1.2.2 (b0a84865, 2022-12-01)"
   sodipodi:docname="emailLogo.svg"
   xmlns:inkscape="http://www.inkscape.org/namespaces/inkscape"
   xmlns:sodipodi="http://sodipodi.sourceforge.net/DTD/sodipodi-0.dtd"
   xmlns="http://www.w3.org/2000/svg"
   xmlns:svg="http://www.w3.org/2000/svg"><sodipodi:namedview
     id="namedview304"
     pagecolor="#ffffff"
     bordercolor="#000000"
     borderopacity="0.25"
     inkscape:showpageshadow="2"
     inkscape:pageopacity="0.0"
     inkscape:pagecheckerboard="0"
     inkscape:deskcolor="#d1d1d1"
     inkscape:document-units="mm"
     showgrid="false"
     inkscape:zoom="0.62092452"
     inkscape:cx="40.262543"
     inkscape:cy="300.35857"
     inkscape:window-width="3440"
     inkscape:window-height="1359"
     inkscape:window-x="1440"
     inkscape:window-y="25"
     inkscape:window-maximized="0"
     inkscape:current-layer="layer1" /><defs
     id="defs299" /><g
     inkscape:label="Layer 1"
     inkscape:groupmode="layer"
     id="layer1"
     transform="translate(-30.10894,-69.344771)"><path
       style="fill:#000000;stroke-width:0.212848"
       d="M 44.417805,209.27884 C 37.74311,208.07391 32.644642,203.41104 30.506692,196.55623 30.122713,195.3251 30.10894,193.34884 30.10894,139.48699 V 83.693026 l 0.485938,-1.532024 c 2.132065,-6.721783 7.295416,-11.32291 14.018428,-12.491998 1.636773,-0.284626 10.33277,-0.322992 73.206634,-0.322992 78.55777,0 73.14594,-0.09162 76.76406,1.299727 3.73206,1.435176 7.27726,4.609298 9.01552,8.071859 0.52776,1.051264 1.17822,2.600797 1.44549,3.443404 l 0.48593,1.532024 v 55.793964 c 0,53.86185 -0.0137,55.83811 -0.39775,57.06924 -2.16803,6.95125 -7.25092,11.54178 -14.10304,12.73694 -1.7128,0.29875 -9.35235,0.3311 -73.42336,0.31095 -60.886315,-0.0191 -71.760864,-0.0675 -73.188985,-0.32528 z m 135.002335,-56.4013 c 0,-21.62681 -0.0584,-39.32146 -0.12966,-39.32146 -0.1308,0 -3.55752,2.39825 -13.51192,9.45656 -2.98941,2.11968 -8.26486,5.85157 -11.72321,8.29306 -3.45835,2.44149 -8.7338,6.17218 -11.72323,8.29041 -2.98941,2.11826 -8.12099,5.74944 -11.40348,8.0693 -3.28251,2.31986 -7.5748,5.35924 -9.53845,6.75415 l -3.57025,2.53622 -3.57026,-2.53622 c -1.96363,-1.39491 -6.25593,-4.43429 -9.53843,-6.75415 -3.28251,-2.31986 -8.414074,-5.95104 -11.403497,-8.0693 -2.98942,-2.11823 -8.264869,-5.84892 -11.723219,-8.29041 -3.458351,-2.44149 -8.7338,-6.17338 -11.723221,-8.29306 -9.954386,-7.05831 -13.381103,-9.45656 -13.511921,-9.45656 -0.07131,0 -0.129644,17.69465 -0.129644,39.32146 v 39.32145 h 61.600192 61.6002 z m -53.43883,-27.87806 c 4.47952,-3.17517 8.62414,-6.10833 9.21031,-6.51815 1.13349,-0.79249 8.25556,-5.82748 15.98621,-11.30154 2.57912,-1.82626 7.85456,-5.5573 11.72323,-8.291173 13.83612,-9.77765 16.51908,-11.712264 16.51908,-11.911559 0,-0.127272 -22.80246,-0.202079 -61.6002,-0.202079 -39.227205,0 -61.600192,0.07411 -61.600192,0.204115 0,0.112307 2.325994,1.853578 5.168875,3.869602 8.674601,6.151579 15.705149,11.127674 23.073428,16.330964 3.868663,2.73195 9.067399,6.4081 11.552745,8.16925 2.485349,1.76113 7.224254,5.11499 10.530884,7.45302 3.30663,2.33803 7.17208,5.08301 8.58987,6.09995 1.41781,1.01691 2.60558,1.85384 2.63951,1.85979 0.034,0.006 3.72676,-2.58703 8.20625,-5.76219 z"
       id="path1107" /><path
       style="fill:#ffffff;stroke-width:1.6105"
       d="m 283.4483,842.29239 c 0,-0.88578 2.53654,-1.6105 5.63676,-1.6105 3.10021,0 5.63675,0.72472 5.63675,1.6105 0,0.88578 -2.53654,1.6105 -5.63675,1.6105 -3.10022,0 -5.63676,-0.72472 -5.63676,-1.6105 z"
       id="path820"
       transform="scale(0.26458333)" /><path
       style="fill:#ffffff;stroke-width:1.6105"
       d="m 267.34328,833.43463 c 0,-5.60693 0.0383,-5.63676 7.24726,-5.63676 7.20891,0 7.24726,0.0298 7.24726,5.63676 0,5.60693 -0.0384,5.63676 -7.24726,5.63676 -7.20891,0 -7.24726,-0.0298 -7.24726,-5.63676 z"
       id="path822"
       transform="scale(0.26458333)" /><path
       style="fill:#ffffff;stroke-width:1.6105"
       d="m 254.45927,833.48853 v -5.566 l 12.04973,0.1403 c 13.1354,0.15294 17.46007,2.43389 14.2577,7.51992 -1.29561,2.0577 -4.55963,2.7753 -13.9985,3.07758 l -12.30893,0.3942 z"
       id="path824"
       transform="scale(0.26458333)" /><path
       style="fill:#ffffff;stroke-width:1.6105"
       d="m 267.34328,819.74537 v -6.44201 h 7.24726 7.24726 v 6.44201 6.442 h -7.24726 -7.24726 z"
       id="path826"
       transform="scale(0.26458333)" /></g></svg>
