<?xml version="1.0" encoding="UTF-8" standalone="no"?>
<!-- Created with Inkscape (http://www.inkscape.org/) -->

<svg
   width="125.38119mm"
   height="118.73515mm"
   viewBox="0 0 125.38119 118.73515"
   version="1.1"
   id="svg302"
   xml:space="preserve"
   inkscape:version="1.2.2 (b0a84865, 2022-12-01)"
   sodipodi:docname="gitHubLogo.svg"
   xmlns:inkscape="http://www.inkscape.org/namespaces/inkscape"
   xmlns:sodipodi="http://sodipodi.sourceforge.net/DTD/sodipodi-0.dtd"
   xmlns="http://www.w3.org/2000/svg"
   xmlns:svg="http://www.w3.org/2000/svg"><sodipodi:namedview
     id="namedview304"
     pagecolor="#ffffff"
     bordercolor="#000000"
     borderopacity="0.25"
     inkscape:showpageshadow="2"
     inkscape:pageopacity="0.0"
     inkscape:pagecheckerboard="0"
     inkscape:deskcolor="#d1d1d1"
     inkscape:document-units="mm"
     showgrid="false"
     inkscape:zoom="1.1814765"
     inkscape:cx="246.30198"
     inkscape:cy="393.57533"
     inkscape:window-width="3440"
     inkscape:window-height="1412"
     inkscape:window-x="1440"
     inkscape:window-y="28"
     inkscape:window-maximized="0"
     inkscape:current-layer="layer1" /><defs
     id="defs299" /><g
     inkscape:label="Layer 1"
     inkscape:groupmode="layer"
     id="layer1"
     transform="translate(-35.823282,-77.183)"><path
       style="fill:#ffffff;stroke-width:1.6105"
       d="m 283.4483,842.29239 c 0,-0.88578 2.53654,-1.6105 5.63676,-1.6105 3.10021,0 5.63675,0.72472 5.63675,1.6105 0,0.88578 -2.53654,1.6105 -5.63675,1.6105 -3.10022,0 -5.63676,-0.72472 -5.63676,-1.6105 z"
       id="path820"
       transform="scale(0.26458333)" /><path
       style="fill:#ffffff;stroke-width:1.6105"
       d="m 267.34328,833.43463 c 0,-5.60693 0.0383,-5.63676 7.24726,-5.63676 7.20891,0 7.24726,0.0298 7.24726,5.63676 0,5.60693 -0.0384,5.63676 -7.24726,5.63676 -7.20891,0 -7.24726,-0.0298 -7.24726,-5.63676 z"
       id="path822"
       transform="scale(0.26458333)" /><path
       style="fill:#ffffff;stroke-width:1.6105"
       d="m 254.45927,833.48853 v -5.566 l 12.04973,0.1403 c 13.1354,0.15294 17.46007,2.43389 14.2577,7.51992 -1.29561,2.0577 -4.55963,2.7753 -13.9985,3.07758 l -12.30893,0.3942 z"
       id="path824"
       transform="scale(0.26458333)" /><path
       style="fill:#ffffff;stroke-width:1.6105"
       d="m 267.34328,819.74537 v -6.44201 h 7.24726 7.24726 v 6.44201 6.442 h -7.24726 -7.24726 z"
       id="path826"
       transform="scale(0.26458333)" /><path
       style="fill:#000000;stroke-width:0.232673"
       d="m 93.642286,195.82127 c -1.95481,-0.0979 -3.83842,-0.25142 -4.18582,-0.34107 -0.34741,-0.0897 -1.65418,-0.34263 -2.90395,-0.56217 -3.44988,-0.60602 -6.87298,-1.47537 -8.527381,-2.16568 -0.41454,-0.17297 -0.898902,-0.31794 -1.076353,-0.32217 -0.177451,-0.004 -0.75317,-0.20446 -1.279393,-0.44499 -0.526209,-0.24051 -1.067363,-0.44076 -1.202546,-0.44498 -0.135197,-0.004 -0.842288,-0.30053 -1.571347,-0.65846 -0.729059,-0.35794 -1.574968,-0.72569 -1.879777,-0.81723 -0.463629,-0.13924 -4.143611,-2.10766 -6.507534,-3.48089 -1.735889,-1.00838 -3.696526,-2.35672 -6.057547,-4.16577 -1.896199,-1.45291 -7.212605,-6.53887 -8.702346,-8.32513 -1.404812,-1.68442 -3.582402,-4.52148 -4.262576,-5.55343 -1.756337,-2.66471 -5.082679,-8.71047 -5.104905,-9.27839 -0.0041,-0.11408 -0.216084,-0.61473 -0.470273,-1.11267 -0.254175,-0.49794 -0.465798,-1.04271 -0.47026,-1.21063 -0.0041,-0.16791 -0.156961,-0.62624 -0.338887,-1.0185 -0.447464,-0.96485 -1.269941,-3.47425 -1.457765,-4.44772 -0.08407,-0.43569 -0.248656,-0.99587 -0.365777,-1.24484 -0.223638,-0.47545 -0.808794,-3.57628 -1.217246,-6.45053 -0.309501,-2.1779 -0.318627,-12.30061 -0.01356,-14.37221 0.459696,-3.1155 1.023075,-6.11858 1.231335,-6.56369 0.116483,-0.24897 0.280577,-0.80914 0.364638,-1.24484 0.157232,-0.81488 0.965443,-3.38307 1.317714,-4.18717 0.109025,-0.24897 0.325218,-0.84446 0.480335,-1.32331 0.155117,-0.47885 0.431043,-1.14088 0.613172,-1.47117 0.182116,-0.3303 0.331795,-0.683 0.332595,-0.78378 0.0014,-0.19042 1.770766,-3.86082 2.148205,-4.45661 0.118246,-0.18673 0.517842,-0.89967 0.887891,-1.58434 0.370049,-0.68466 0.755068,-1.34668 0.855577,-1.47117 0.359756,-0.44551 1.371983,-1.94566 1.371983,-2.0333 0,-0.15574 2.514375,-3.41273 4.097194,-5.307319 2.762326,-3.306397 9.457129,-9.198837 12.87503,-11.331947 0.299182,-0.18673 0.790677,-0.51774 1.092205,-0.7356 0.301515,-0.21784 0.609878,-0.39608 0.685232,-0.39608 0.0754,0 0.758024,-0.37704 1.517011,-0.83786 1.508292,-0.91576 8.141476,-4.1368 8.544517,-4.14917 0.137692,-0.004 0.680892,-0.20447 1.207102,-0.44498 0.526223,-0.24053 1.101942,-0.44077 1.279393,-0.44499 0.17745,-0.004 0.661813,-0.15499 1.076353,-0.33503 0.414554,-0.18004 1.399541,-0.49379 2.188861,-0.69723 0.78932,-0.203449 2.02714,-0.52529 2.75068,-0.715209 0.72355,-0.189907 2.23044,-0.489729 3.34866,-0.666278 1.11821,-0.176536 2.35903,-0.41877 2.75739,-0.538283 2.2241,-0.667278 16.656364,-0.669062 18.875724,-0.0026 0.40211,0.120745 1.64601,0.365942 2.76422,0.544763 2.56854,0.41075 4.32324,0.784187 4.78379,1.018093 0.19734,0.100214 0.93947,0.313514 1.64921,0.473974 0.70973,0.16046 1.57082,0.4302 1.91351,0.59941 0.34271,0.16921 0.72866,0.30829 0.85767,0.30904 1.07435,0.006 9.04252,3.70296 12.68786,5.88609 6.7084,4.01757 14.59592,11.48266 18.7702,17.764936 2.08171,3.13295 5.03991,8.59155 5.40786,9.97881 0.08,0.30141 0.22098,0.54804 0.3134,0.54804 0.0925,0 0.31246,0.5347 0.48896,1.18825 0.17651,0.65353 0.40306,1.34102 0.50345,1.52775 0.27446,0.51049 1.11986,3.17257 1.29379,4.07401 0.0841,0.4357 0.24815,0.99587 0.36464,1.24484 0.20835,0.4453 0.7723,3.4518 1.2312,6.56369 0.30932,2.09755 0.30359,12.22027 -0.008,14.37221 -0.42807,2.95514 -1.00141,5.98174 -1.22192,6.45053 -0.11717,0.24897 -0.28171,0.80915 -0.36578,1.24484 -0.18783,0.97346 -1.01029,3.48286 -1.45777,4.44772 -0.18191,0.39226 -0.33441,0.85059 -0.33887,1.0185 -0.004,0.16792 -0.21608,0.71269 -0.47027,1.21063 -0.25418,0.49794 -0.4658,0.99764 -0.47026,1.11047 -0.0217,0.54775 -3.03634,6.03815 -5.10491,9.29721 -0.25835,0.40701 -3.38192,4.41856 -5.00864,6.43246 -1.81163,2.24288 -10.82066,9.98046 -11.62042,9.98046 -0.14071,0 -0.34189,0.13561 -0.44709,0.30135 -0.6535,1.02958 -13.09405,7.16042 -14.54728,7.16907 -0.12896,6.8e-4 -0.51495,0.13984 -0.85766,0.30905 -0.3427,0.16921 -1.20378,0.43895 -1.91352,0.59941 -0.70973,0.16046 -1.45187,0.37375 -1.64921,0.47397 -0.69188,0.3514 -6.45264,1.44286 -9.32839,1.76741 -2.82521,0.31884 -8.641704,0.42667 -12.523784,0.23217 z m 19.340684,-31.8104 c 0,-7.02477 -0.0793,-10.07477 -0.2678,-10.29819 -0.14728,-0.1746 -0.34404,-0.72486 -0.43724,-1.22279 -0.0932,-0.49794 -0.47363,-1.44008 -0.84538,-2.09367 -0.37177,-0.65357 -0.60555,-1.2283 -0.51953,-1.27716 0.0861,-0.0489 0.9637,-0.20539 1.95036,-0.34786 4.2691,-0.6164 9.17863,-2.7559 12.19867,-5.31601 1.30181,-1.10355 3.10947,-3.13427 3.10947,-3.49318 0,-0.14299 0.081,-0.26 0.1798,-0.26 0.19377,0 0.98086,-1.36745 1.62845,-2.82918 1.66791,-3.76476 1.96576,-9.65278 0.83582,-16.52239 -0.57942,-3.52264 -2.01835,-6.39581 -4.1397,-8.26593 -0.46414,-0.40918 -0.46346,-0.4245 0.0815,-1.84486 0.47836,-1.2466 0.54793,-1.84295 0.53684,-4.60093 -0.0109,-2.73721 -0.093,-3.39982 -0.60225,-4.86618 -0.67871,-1.954366 -0.94465,-2.092546 -2.77227,-1.44052 -2.65006,0.94545 -4.42515,2.22761 -7.00795,5.06188 -0.51048,0.56017 -1.07766,1.21482 -1.2604,1.45479 -0.32672,0.429 -0.34295,0.42832 -0.9734,-0.0409 -0.35264,-0.26247 -0.98592,-0.54694 -1.40729,-0.63217 -0.42136,-0.0852 -0.87376,-0.2334 -1.00533,-0.32931 -1.02128,-0.74451 -13.389604,-1.10307 -17.446774,-0.5058 -1.99755,0.29407 -4.03388,0.92344 -5.07372,1.56815 -0.68424,0.42425 -0.53676,0.51686 -1.69124,-1.06205 -0.60264,-0.8242 -3.15934,-3.2127 -4.13222,-3.86038 -2.03719,-1.35625 -4.56374,-2.263936 -5.223494,-1.8766 -0.218607,0.12832 -0.535607,0.68231 -0.704447,1.23107 -0.16884,0.54875 -0.418012,1.32882 -0.553724,1.73347 -0.379812,1.13255 -0.536299,4.56523 -0.265688,5.82795 0.133434,0.62242 0.417889,1.73462 0.632211,2.47154 0.38967,1.33986 0.38967,1.33986 -0.395244,2.13673 -0.431694,0.43827 -0.915948,0.93418 -1.076123,1.10203 -0.556422,0.58311 -1.826837,3.35098 -2.15771,4.70107 -0.604846,2.46802 -0.780127,3.81048 -0.960467,7.35586 -0.178508,3.50939 0.16804,8.58881 0.623695,9.14179 0.113772,0.13809 0.272347,0.57818 0.352326,0.97797 0.08001,0.3998 0.530684,1.46451 1.001527,2.36603 1.835177,3.51375 4.979908,6.34268 9.352238,8.41309 1.90487,0.90201 5.28991,1.92208 7.32795,2.20826 1.01955,0.14317 1.85371,0.35335 1.85371,0.46709 0,0.11369 -0.16135,0.4398 -0.35856,0.72461 -0.56734,0.81933 -1.4849,3.53508 -1.65785,4.90683 -0.19678,1.56072 -0.48073,1.74765 -3.11857,2.05296 -4.27112,0.49437 -8.00531,-0.65006 -10.525356,-3.22572 -0.750688,-0.76725 -1.53666,-1.73584 -1.746588,-2.15242 -0.209941,-0.41657 -0.469405,-0.7574 -0.576586,-0.7574 -0.107127,0 -0.19489,-0.14343 -0.19489,-0.31873 0,-0.43344 -1.868034,-2.22156 -3.072478,-2.94102 -1.497932,-0.89477 -2.860219,-1.26002 -4.713147,-1.26364 -2.662318,-0.005 -3.038482,0.82195 -0.965822,2.12376 1.724823,1.08334 3.425997,3.16228 5.297285,6.47364 0.386918,0.68467 0.757292,1.29577 0.823073,1.358 0.06577,0.0622 0.435342,0.69289 0.821256,1.40145 1.550681,2.8471 4.439742,5.09925 8.047343,6.27325 1.80222,0.58649 5.95857,0.85142 8.29325,0.52862 1.49494,-0.2067 1.49494,-0.2067 1.49494,4.5843 0,2.63506 0.0728,4.85996 0.16192,4.94422 0.0891,0.0843 4.90574,0.12665 10.703724,0.0943 10.54183,-0.0589 10.54183,-0.0589 10.54183,-10.03966 z"
       id="path1502" /></g></svg>
