<?xml version="1.0" encoding="UTF-8" standalone="no"?>
<!-- Created with Inkscape (http://www.inkscape.org/) -->

<svg
   width="65.565552mm"
   height="66.142181mm"
   viewBox="0 0 65.565552 66.142181"
   version="1.1"
   id="svg5"
   xml:space="preserve"
   inkscape:version="1.2.2 (b0a84865, 2022-12-01)"
   sodipodi:docname=".svg"
   xmlns:inkscape="http://www.inkscape.org/namespaces/inkscape"
   xmlns:sodipodi="http://sodipodi.sourceforge.net/DTD/sodipodi-0.dtd"
   xmlns="http://www.w3.org/2000/svg"
   xmlns:svg="http://www.w3.org/2000/svg"><sodipodi:namedview
     id="namedview7"
     pagecolor="#ffffff"
     bordercolor="#000000"
     borderopacity="0.25"
     inkscape:showpageshadow="2"
     inkscape:pageopacity="0.0"
     inkscape:pagecheckerboard="0"
     inkscape:deskcolor="#d1d1d1"
     inkscape:document-units="mm"
     showgrid="false"
     inkscape:zoom="1.9028402"
     inkscape:cx="325.82873"
     inkscape:cy="534.98976"
     inkscape:window-width="1920"
     inkscape:window-height="1080"
     inkscape:window-x="1440"
     inkscape:window-y="0"
     inkscape:window-maximized="0"
     inkscape:current-layer="layer1" /><defs
     id="defs2" /><g
     inkscape:label="Layer 1"
     inkscape:groupmode="layer"
     id="layer1"
     transform="translate(-79.682436,-101.96917)"><path
       style="fill:#000000;stroke-width:0.198458"
       d="m 82.994006,167.90642 c -1.39752,-0.46811 -2.772873,-2.63671 -3.173029,-5.00311 -0.485592,-2.87163 0.699141,-6.05306 2.708101,-7.27222 0.803755,-0.48776 0.859677,-0.48868 29.936142,-0.48868 29.07645,0 29.13238,9.5e-4 29.93613,0.48868 1.38918,0.84303 2.34838,2.51867 2.71264,4.7387 0.18149,1.1061 0.17957,1.53912 -0.0115,2.60017 -0.43429,2.41184 -1.78025,4.46612 -3.24114,4.94678 -0.80888,0.26614 -58.071965,0.2561 -58.867361,-0.0103 z m 0.562634,-26.39785 c -1.173091,-0.22046 -2.772679,-1.86474 -3.315353,-3.40799 -0.518029,-1.47317 -0.676337,-2.97776 -0.446924,-4.24765 0.416239,-2.30403 1.171844,-3.67652 2.594247,-4.71222 l 0.811596,-0.59095 h 29.265014 29.265 l 0.8116,0.59095 c 1.4224,1.0357 2.17801,2.40819 2.59425,4.71222 0.46984,2.60074 -0.57579,5.54307 -2.52556,7.10674 l -0.73686,0.59094 -28.90857,0.0259 c -15.899723,0.0143 -29.133517,-0.0163 -29.40844,-0.068 z m -1.083031,-27.05504 c -1.340888,-0.8424 -2.300244,-2.54759 -2.65717,-4.72294 -0.181487,-1.1061 -0.179574,-1.53912 0.01148,-2.60017 0.434287,-2.41184 1.780256,-4.46612 3.241138,-4.94678 0.869099,-0.28595 57.923213,-0.28595 58.792313,0 1.47931,0.48672 2.83698,2.58229 3.24808,5.01342 0.48559,2.87164 -0.69914,6.05307 -2.7081,7.27223 -0.80413,0.48799 -0.84607,0.48865 -29.9916,0.47198 -28.775876,-0.0165 -29.196897,-0.0233 -29.936143,-0.48774 z"
       id="path225" /></g></svg>
