<?xml version="1.0" encoding="UTF-8" standalone="no"?>
<!-- Created with Inkscape (http://www.inkscape.org/) -->

<svg
   width="76.369484mm"
   height="66.695786mm"
   viewBox="0 0 76.369484 66.695785"
   version="1.1"
   id="svg302"
   xml:space="preserve"
   inkscape:version="1.2.2 (b0a84865, 2022-12-01)"
   sodipodi:docname="jsLogo.svg"
   xmlns:inkscape="http://www.inkscape.org/namespaces/inkscape"
   xmlns:sodipodi="http://sodipodi.sourceforge.net/DTD/sodipodi-0.dtd"
   xmlns="http://www.w3.org/2000/svg"
   xmlns:svg="http://www.w3.org/2000/svg"><sodipodi:namedview
     id="namedview304"
     pagecolor="#ffffff"
     bordercolor="#000000"
     borderopacity="0.25"
     inkscape:showpageshadow="2"
     inkscape:pageopacity="0.0"
     inkscape:pagecheckerboard="0"
     inkscape:deskcolor="#d1d1d1"
     inkscape:document-units="mm"
     showgrid="false"
     inkscape:zoom="1.1814765"
     inkscape:cx="60.094297"
     inkscape:cy="201.44286"
     inkscape:window-width="3440"
     inkscape:window-height="1412"
     inkscape:window-x="1440"
     inkscape:window-y="28"
     inkscape:window-maximized="0"
     inkscape:current-layer="layer1" /><defs
     id="defs299" /><g
     inkscape:label="Layer 1"
     inkscape:groupmode="layer"
     id="layer1"
     transform="translate(-84.937672,-127.85218)"><path
       style="fill:#ffffff;stroke-width:1.6105"
       d="m 283.4483,842.29239 c 0,-0.88578 2.53654,-1.6105 5.63676,-1.6105 3.10021,0 5.63675,0.72472 5.63675,1.6105 0,0.88578 -2.53654,1.6105 -5.63675,1.6105 -3.10022,0 -5.63676,-0.72472 -5.63676,-1.6105 z"
       id="path820"
       transform="scale(0.26458333)" /><path
       style="fill:#ffffff;stroke-width:1.6105"
       d="m 267.34328,833.43463 c 0,-5.60693 0.0383,-5.63676 7.24726,-5.63676 7.20891,0 7.24726,0.0298 7.24726,5.63676 0,5.60693 -0.0384,5.63676 -7.24726,5.63676 -7.20891,0 -7.24726,-0.0298 -7.24726,-5.63676 z"
       id="path822"
       transform="scale(0.26458333)" /><path
       style="fill:#ffffff;stroke-width:1.6105"
       d="m 254.45927,833.48853 v -5.566 l 12.04973,0.1403 c 13.1354,0.15294 17.46007,2.43389 14.2577,7.51992 -1.29561,2.0577 -4.55963,2.7753 -13.9985,3.07758 l -12.30893,0.3942 z"
       id="path824"
       transform="scale(0.26458333)" /><path
       style="fill:#ffffff;stroke-width:1.6105"
       d="m 267.34328,819.74537 v -6.44201 h 7.24726 7.24726 v 6.44201 6.442 h -7.24726 -7.24726 z"
       id="path826"
       transform="scale(0.26458333)" /><path
       style="fill:#000000;stroke-width:0.212739"
       d="m 99.475347,186.81387 c -0.839393,-0.10438 -1.955402,-0.29354 -2.480022,-0.42035 -0.524619,-0.12683 -1.200597,-0.35393 -1.502172,-0.50468 -0.518603,-0.25923 -0.540931,-0.32844 -0.412053,-1.27702 0.07495,-0.5516 0.208744,-1.64347 0.297333,-2.42636 0.08859,-0.78289 0.257197,-2.32372 0.374687,-3.42408 0.11749,-1.10036 0.261956,-2.09792 0.321038,-2.2168 0.05908,-0.11889 0.333438,-0.15166 0.609679,-0.0729 0.276242,0.0788 1.359829,0.29255 2.407969,0.47496 1.402654,0.2441 2.208384,0.26952 3.052334,0.0963 0.63064,-0.12937 1.40416,-0.38315 1.71894,-0.56383 0.31477,-0.18066 0.81387,-0.5306 1.10912,-0.77762 0.29525,-0.24703 0.74097,-0.82277 0.99051,-1.27943 0.24953,-0.45668 0.64428,-1.56392 0.87721,-2.46056 0.42154,-1.62262 0.4236,-1.71413 0.44028,-19.54566 0.0168,-17.91542 0.0168,-17.91542 4.59525,-17.91542 4.57851,0 4.57851,0 4.57851,18.86048 0,14.81165 -0.0537,19.1151 -0.25052,20.04665 -0.13778,0.6524 -0.34071,1.61322 -0.45097,2.13515 -0.11026,0.52192 -0.28708,1.21585 -0.39295,1.54205 -0.10587,0.3262 -0.45271,1.23364 -0.77076,2.01653 -0.31806,0.78288 -0.93707,1.93507 -1.37559,2.56041 -0.43851,0.62533 -1.24966,1.55967 -1.80256,2.0763 -0.55289,0.51664 -1.31834,1.11015 -1.70099,1.3189 -0.38264,0.20877 -0.86742,0.46329 -1.07727,0.56559 -0.20985,0.10236 -0.72493,0.2991 -1.14463,0.4373 -0.41969,0.1382 -1.14939,0.35678 -1.62155,0.48572 -0.47216,0.12898 -1.75986,0.28475 -2.86156,0.34625 -1.1017,0.0615 -2.68987,0.0264 -3.529263,-0.078 z m 33.289513,0.088 c -0.57708,-0.047 -1.56431,-0.19834 -2.19387,-0.33608 -0.62953,-0.13773 -1.61677,-0.36739 -2.19386,-0.51035 -0.57708,-0.14293 -1.65016,-0.49775 -2.38463,-0.78846 -0.73447,-0.2907 -1.70625,-0.72932 -2.15953,-0.97472 -0.82413,-0.44615 -0.82413,-0.44615 -0.70317,-1.51372 0.0665,-0.58718 0.19549,-1.38786 0.28659,-1.7793 0.0911,-0.39144 0.2502,-1.13875 0.35357,-1.66066 0.10338,-0.52194 0.27381,-1.37599 0.37873,-1.89791 0.10492,-0.52193 0.29965,-1.42937 0.43273,-2.01653 0.13307,-0.58716 0.25804,-1.09854 0.27772,-1.13638 0.0197,-0.0378 0.71197,0.26932 1.53843,0.68256 0.82645,0.41325 1.76018,0.83604 2.07495,0.93957 0.31477,0.10356 1.0874,0.34635 1.71693,0.53966 0.62956,0.1933 1.71254,0.46869 2.40664,0.61198 0.6941,0.14328 1.85304,0.2567 2.5754,0.25207 0.72237,-0.004 1.78556,-0.15295 2.36265,-0.32955 0.57708,-0.17661 1.26385,-0.43335 1.52616,-0.57055 0.26231,-0.1372 0.71849,-0.45456 1.01375,-0.70526 0.29524,-0.25071 0.76459,-0.8709 1.043,-1.37822 0.43473,-0.7922 0.50708,-1.17361 0.51243,-2.70169 0.006,-1.54637 -0.0602,-1.89882 -0.50099,-2.69219 -0.27899,-0.5021 -0.93828,-1.27388 -1.46511,-1.71509 -0.52684,-0.4412 -1.50044,-1.10968 -2.16357,-1.48549 -0.66312,-0.37582 -1.76368,-0.92198 -2.4457,-1.21369 -0.68201,-0.29172 -2.18432,-1.09134 -3.33848,-1.77694 -1.15417,-0.68561 -2.6565,-1.76653 -3.3385,-2.40208 -0.682,-0.63554 -1.52725,-1.53234 -1.87832,-1.99288 -0.35107,-0.46053 -0.95802,-1.42453 -1.34878,-2.14216 -0.39075,-0.71765 -0.89152,-1.89198 -1.11282,-2.60963 -0.22131,-0.71765 -0.49874,-2.03923 -0.61652,-2.93687 -0.15903,-1.2121 -0.15827,-2.09726 0.003,-3.43996 0.11942,-0.99434 0.30367,-2.12818 0.40943,-2.5196 0.10579,-0.39146 0.45606,-1.40566 0.77841,-2.25378 0.42527,-1.11889 1.01183,-2.06421 2.1375,-3.44482 1.03379,-1.26792 2.01381,-2.20495 2.93737,-2.80847 0.76227,-0.49813 1.65947,-1.01191 1.99376,-1.14171 0.33428,-0.12978 0.90825,-0.33881 1.27548,-0.46444 0.36724,-0.12562 1.22568,-0.38369 1.90764,-0.57342 0.82374,-0.22918 2.32852,-0.3434 4.48311,-0.34031 1.99437,0.002 3.79412,0.13484 4.67397,0.34273 0.78692,0.18592 1.73123,0.44351 2.09848,0.57241 0.36722,0.12884 0.88231,0.30386 1.14463,0.38881 0.2623,0.085 0.69154,0.2648 0.95384,0.3997 0.26232,0.1349 0.69155,0.38809 0.95387,0.56265 0.28327,0.18851 0.45646,0.49029 0.42652,0.74319 -0.0277,0.23421 -0.14498,0.85284 -0.26058,1.37478 -0.11561,0.5219 -0.27613,1.21584 -0.35671,1.54205 -0.0806,0.32619 -0.2523,1.0735 -0.38155,1.66065 -0.12926,0.58717 -0.30096,1.33448 -0.38155,1.66067 -0.0806,0.32621 -0.25721,1.05114 -0.3925,1.61097 -0.18755,0.77611 -0.31741,0.98131 -0.54674,0.86398 -0.16542,-0.0846 -0.90169,-0.4121 -1.63616,-0.72773 -0.73448,-0.31564 -1.59294,-0.66938 -1.90771,-0.78611 -0.31477,-0.11676 -1.49712,-0.34778 -2.62744,-0.51342 -1.65893,-0.2431 -2.33221,-0.24326 -3.49241,-6.8e-4 -0.79051,0.16518 -1.72249,0.44854 -2.07111,0.62966 -0.3486,0.18114 -0.90481,0.6129 -1.23602,0.95949 -0.33121,0.34656 -0.72788,0.93239 -0.8815,1.30181 -0.15361,0.36942 -0.27931,1.27435 -0.27931,2.01095 0,0.99578 0.10783,1.53122 0.42026,2.08762 0.23114,0.41158 0.63891,0.98954 0.90615,1.28435 0.26726,0.29479 1.12978,0.94609 1.9167,1.44733 0.78692,0.50122 2.16047,1.2577 3.05232,1.68104 0.89187,0.42336 1.79327,0.85702 2.00312,0.9637 0.20984,0.10666 1.20275,0.67492 2.20647,1.26277 1.0037,0.58786 2.24849,1.46388 2.76618,1.94674 0.51767,0.48283 1.30989,1.31894 1.76046,1.85802 0.45057,0.53907 1.16158,1.63342 1.58002,2.43187 0.41844,0.79847 0.84915,1.81266 0.9571,2.25377 0.10794,0.44111 0.3198,1.3677 0.47076,2.0591 0.15096,0.69139 0.27141,2.18598 0.26768,3.32133 -0.004,1.13536 -0.12657,2.65143 -0.27297,3.36908 -0.14637,0.71765 -0.35702,1.68285 -0.46808,2.1449 -0.11107,0.46204 -0.4943,1.44385 -0.85163,2.18179 -0.35732,0.73794 -1.02354,1.84061 -1.48051,2.4504 -0.45695,0.6098 -1.44933,1.62969 -2.20529,2.26645 -0.75596,0.63674 -1.42222,1.15771 -1.48056,1.15771 -0.0584,0 -0.47,0.2009 -0.91477,0.4464 -0.44478,0.24552 -1.06625,0.55559 -1.38102,0.68904 -0.31476,0.13342 -0.95862,0.3561 -1.43078,0.49475 -0.47216,0.13866 -1.33063,0.3579 -1.90771,0.48723 -0.57708,0.12925 -1.99356,0.27916 -3.14771,0.333 -1.15416,0.0538 -2.57064,0.0592 -3.14773,0.0121 z"
       id="path1559" /></g></svg>
