<?xml version="1.0" encoding="UTF-8" standalone="no"?>
<!-- Created with Inkscape (http://www.inkscape.org/) -->

<svg
   width="125.31126mm"
   height="125.27963mm"
   viewBox="0 0 125.31126 125.27963"
   version="1.1"
   id="svg302"
   xml:space="preserve"
   inkscape:version="1.2.2 (b0a84865, 2022-12-01)"
   sodipodi:docname="linkedInLogo.svg"
   xmlns:inkscape="http://www.inkscape.org/namespaces/inkscape"
   xmlns:sodipodi="http://sodipodi.sourceforge.net/DTD/sodipodi-0.dtd"
   xmlns="http://www.w3.org/2000/svg"
   xmlns:svg="http://www.w3.org/2000/svg"><sodipodi:namedview
     id="namedview304"
     pagecolor="#ffffff"
     bordercolor="#000000"
     borderopacity="0.25"
     inkscape:showpageshadow="2"
     inkscape:pageopacity="0.0"
     inkscape:pagecheckerboard="0"
     inkscape:deskcolor="#d1d1d1"
     inkscape:document-units="mm"
     showgrid="false"
     inkscape:zoom="0.62092452"
     inkscape:cx="-53.146556"
     inkscape:cy="214.19673"
     inkscape:window-width="3440"
     inkscape:window-height="1440"
     inkscape:window-x="1440"
     inkscape:window-y="0"
     inkscape:window-maximized="0"
     inkscape:current-layer="layer1" /><defs
     id="defs299" /><g
     inkscape:label="Layer 1"
     inkscape:groupmode="layer"
     id="layer1"
     transform="translate(-55.411551,-92.463552)"><path
       style="fill:#000000;stroke-width:1.6105"
       d="M 380.0784,665.1372 V 507.30804 h 45.8993 45.8993 v 20.93652 c 0,12.88401 0.61942,20.93652 1.6105,20.93652 0.88578,0 1.6105,-0.65131 1.6105,-1.44735 0,-0.79604 5.12933,-6.93979 11.39851,-13.65276 13.78049,-14.75601 29.63268,-24.91354 48.19005,-30.87851 12.18289,-3.91599 16.08177,-4.39482 35.43104,-4.35136 18.63367,0.0418 23.74716,0.64616 35.76981,4.22732 29.23893,8.70934 50.46853,26.60274 63.29695,53.34992 12.91316,26.92389 12.52772,22.50329 13.23486,151.78978 l 0.62761,114.74825 h -47.60686 -47.60685 l -0.006,-86.56447 c -0.006,-92.7071 -0.86777,-105.7574 -8.08949,-122.54474 -4.35916,-10.13315 -17.74534,-22.97242 -26.7106,-25.61931 -24.1129,-7.11905 -49.96739,-1.49547 -63.86914,13.89211 -7.36689,8.15426 -11.5011,16.20615 -14.74131,28.71052 -2.16655,8.36099 -2.53914,23.17628 -2.53914,100.96238 v 91.16351 h -45.8993 -45.8993 z"
       id="path479"
       transform="scale(0.26458333)" /><path
       style="fill:#000000;stroke-width:1.6105"
       d="M 217.41773,665.1372 V 507.30804 h 48.31505 48.31505 V 665.1372 822.96637 h -48.31505 -48.31505 z"
       id="path481"
       transform="scale(0.26458333)" /><path
       style="fill:#000000;stroke-width:1.6105"
       d="m 248.21197,460.74677 c -17.53808,-6.16715 -31.79718,-20.57847 -36.65665,-37.04797 -3.7856,-12.82998 -2.40056,-31.00805 3.24119,-42.53937 5.65742,-11.56335 19.16504,-23.96617 30.87079,-28.34586 11.9205,-4.46003 28.21046,-4.46003 40.13096,0 11.79419,4.41278 25.20334,16.77178 30.99671,28.5692 4.01556,8.17715 4.50012,10.89804 4.50012,25.26891 0,15.26104 -0.28688,16.63405 -5.47426,26.20019 -10.17606,18.76585 -26.89725,29.45329 -47.58421,30.41372 -8.13005,0.37746 -13.82561,-0.33897 -20.02465,-2.51882 z"
       id="path483"
       transform="scale(0.26458333)" /></g></svg>
