<?xml version="1.0" encoding="UTF-8" standalone="no"?>
<!-- Created with Inkscape (http://www.inkscape.org/) -->

<svg
   width="201.6342mm"
   height="181.67593mm"
   viewBox="0 0 201.6342 181.67593"
   version="1.1"
   id="svg302"
   xml:space="preserve"
   inkscape:version="1.2.2 (b0a84865, 2022-12-01)"
   sodipodi:docname="VSCodeLogo.svg"
   xmlns:inkscape="http://www.inkscape.org/namespaces/inkscape"
   xmlns:sodipodi="http://sodipodi.sourceforge.net/DTD/sodipodi-0.dtd"
   xmlns="http://www.w3.org/2000/svg"
   xmlns:svg="http://www.w3.org/2000/svg"><sodipodi:namedview
     id="namedview304"
     pagecolor="#ffffff"
     bordercolor="#000000"
     borderopacity="0.25"
     inkscape:showpageshadow="2"
     inkscape:pageopacity="0.0"
     inkscape:pagecheckerboard="0"
     inkscape:deskcolor="#d1d1d1"
     inkscape:document-units="mm"
     showgrid="false"
     inkscape:zoom="1.1814765"
     inkscape:cx="495.14315"
     inkscape:cy="507.41592"
     inkscape:window-width="3440"
     inkscape:window-height="1359"
     inkscape:window-x="1440"
     inkscape:window-y="25"
     inkscape:window-maximized="0"
     inkscape:current-layer="layer1"
     showguides="true" /><defs
     id="defs299" /><g
     inkscape:label="Layer 1"
     inkscape:groupmode="layer"
     id="layer1"
     transform="translate(33.740358,-11.56204)"><path
       style="fill:#ffffff;stroke-width:1.6105"
       d="m 283.4483,842.29239 c 0,-0.88578 2.53654,-1.6105 5.63676,-1.6105 3.10021,0 5.63675,0.72472 5.63675,1.6105 0,0.88578 -2.53654,1.6105 -5.63675,1.6105 -3.10022,0 -5.63676,-0.72472 -5.63676,-1.6105 z"
       id="path820"
       transform="scale(0.26458333)" /><path
       style="fill:#ffffff;stroke-width:1.6105"
       d="m 267.34328,833.43463 c 0,-5.60693 0.0383,-5.63676 7.24726,-5.63676 7.20891,0 7.24726,0.0298 7.24726,5.63676 0,5.60693 -0.0384,5.63676 -7.24726,5.63676 -7.20891,0 -7.24726,-0.0298 -7.24726,-5.63676 z"
       id="path822"
       transform="scale(0.26458333)" /><path
       style="fill:#ffffff;stroke-width:1.6105"
       d="m 254.45927,833.48853 v -5.566 l 12.04973,0.1403 c 13.1354,0.15294 17.46007,2.43389 14.2577,7.51992 -1.29561,2.0577 -4.55963,2.7753 -13.9985,3.07758 l -12.30893,0.3942 z"
       id="path824"
       transform="scale(0.26458333)" /><path
       style="fill:#ffffff;stroke-width:1.6105"
       d="m 267.34328,819.74537 v -6.44201 h 7.24726 7.24726 v 6.44201 6.442 h -7.24726 -7.24726 z"
       id="path826"
       transform="scale(0.26458333)" /><path
       style="fill:#000000;stroke-width:0.579617"
       d="m 110.73726,192.61077 c -1.61962,-0.37805 -3.53489,-1.05161 -4.25622,-1.49675 -0.72135,-0.44516 -2.58447,-1.89235 -4.14034,-3.21598 -1.55588,-1.32363 -4.96132,-4.15135 -7.56765,-6.28386 -2.60637,-2.13246 -6.546649,-5.43475 -8.756228,-7.33838 -2.209539,-1.90367 -4.337814,-3.46213 -4.729451,-3.46322 -0.391637,-0.001 -0.711093,-0.35389 -0.709867,-0.78398 0.0012,-0.43008 -0.238027,-0.86544 -0.531879,-0.96745 -0.2937,-0.10179 -2.945435,-2.17942 -5.892556,-4.61646 -2.947118,-2.43702 -8.648743,-7.17251 -12.670296,-10.52332 -4.021534,-3.35083 -7.609961,-6.34163 -7.974237,-6.64624 -0.364264,-0.30457 -3.234536,-2.69981 -6.378405,-5.32268 -3.143823,-2.62289 -7.492188,-6.22384 -9.662986,-8.00216 -2.170813,-1.77832 -5.296604,-4.42818 -6.946199,-5.88862 -1.649606,-1.46042 -3.527413,-2.80894 -4.172911,-2.99671 -0.722791,-0.21014 -1.789748,0.0925 -2.777499,0.78863 -0.882116,0.62148 -2.701375,1.81367 -4.042794,2.64931 -1.341431,0.83563 -4.771598,3.11859 -7.62261,5.07319 -2.8510199,1.95465 -5.5954513,3.88237 -6.0987297,4.28384 -0.5032783,0.40148 -3.9617583,2.80558 -7.685493,5.34247 -3.7237376,2.53691 -7.6201688,5.00809 -8.6587153,5.49156 -1.038546,0.48348 -2.733171,0.87665 -3.765825,0.87374 -1.032667,-0.003 -2.608566,-0.44203 -3.502008,-0.97582 -0.893455,-0.53383 -2.865426,-1.96087 -4.382176,-3.17122 -1.516751,-1.21037 -4.738296,-3.9927 -7.15899,-6.18299 -4.316553,-3.90572 -4.401102,-4.03649 -4.393196,-6.79493 0.0079,-2.77176 0.07661,-2.87446 4.737299,-7.08165 2.601074,-2.34795 8.023708,-6.98711 12.050279,-10.30915 4.026582,-3.32206 9.1743737,-7.62839 11.4395376,-9.5696 2.2651653,-1.9412 4.1189119,-3.68267 4.119448,-3.86991 5.374e-4,-0.18713 -1.9801908,-1.925806 -4.4016072,-3.863535 -2.4214191,-1.937728 -7.4080994,-6.062618 -11.0815054,-9.166484 -3.673397,-3.10384 -8.335734,-6.994135 -10.360746,-8.64507 -2.025013,-1.650895 -4.27809,-3.921935 -5.006861,-5.046691 -0.728762,-1.124757 -1.323092,-2.71492 -1.320746,-3.533692 0.0022,-0.818772 0.735204,-2.506231 1.628557,-3.749908 0.893375,-1.243632 3.991097,-4.206879 6.883831,-6.584949 2.892743,-2.378047 6.211484,-4.780073 7.375001,-5.337834 1.163508,-0.557747 2.837246,-1.022455 3.719412,-1.032706 0.882178,-0.01022 2.387686,0.299955 3.345572,0.689546 0.9578986,0.389477 3.1771837,1.534806 4.9317478,2.545141 1.7545765,1.010373 3.1895154,2.047381 3.1887768,2.304454 -7.359e-4,0.257227 0.4775753,0.608091 1.0629003,0.780015 0.58532925,0.171884 2.09595943,1.124372 3.3569686,2.116573 1.2610119,0.992199 2.9910525,2.302752 3.8445621,2.912347 0.8534834,0.609595 1.9202022,1.419874 2.3704525,1.800635 0.4502489,0.380735 0.9856203,0.692736 1.1897097,0.693312 0.2041019,5.76e-4 3.2513862,2.058418 6.7717842,4.572918 3.520398,2.514527 7.094512,4.911318 7.942473,5.326159 1.266427,0.619573 1.803365,0.628213 3.006431,0.04871 0.805582,-0.388164 4.274564,-3.105672 7.708909,-6.038861 3.434323,-2.933199 7.314284,-6.169319 8.622171,-7.191406 1.307874,-1.022076 2.988714,-2.353395 3.735222,-2.958437 0.746497,-0.60507 4.184616,-3.451858 7.640258,-6.326201 3.455664,-2.874327 8.782629,-7.330331 11.837749,-9.902215 3.055061,-2.571886 7.298598,-6.037376 9.430026,-7.701075 2.131432,-1.663733 5.281657,-4.275656 7.000436,-5.804333 1.718821,-1.528643 5.595724,-4.741411 8.615408,-7.13947 3.019628,-2.398057 7.27505,-5.911423 9.456395,-7.80746 2.18131,-1.896038 5.06303,-3.934266 6.40373,-4.529376 1.34075,-0.595106 3.47559,-1.228342 4.7442,-1.407203 1.45294,-0.20494 3.47945,0.02539 5.47603,0.622164 1.74324,0.521037 3.44283,1.13768 3.77694,1.370348 0.33405,0.232515 2.38576,1.098085 4.55932,1.923161 2.17353,0.825077 6.96074,2.871111 10.63825,4.546759 3.67751,1.675616 6.9459,3.276256 7.26314,3.556944 0.31733,0.280656 0.91658,0.51129 1.33198,0.512461 0.41536,0.0012 3.0281,1.011367 5.80611,2.244868 2.77797,1.233532 6.51217,2.965163 8.29815,3.848072 1.78602,0.882943 3.76596,2.033517 4.39991,2.556839 0.63397,0.523322 1.83897,2.020254 2.67782,3.326519 1.52517,2.375016 1.52517,2.375016 1.32777,66.047061 -0.1926,62.44522 -0.22077,63.71139 -1.41152,65.7131 -0.66773,1.12254 -1.20377,2.17589 -1.19118,2.34077 0.0138,0.16494 -0.60497,0.78356 -1.37246,1.37483 -0.76744,0.59123 -2.05498,1.57067 -2.8611,2.17654 -0.80619,0.60584 -1.93807,1.1002 -2.51539,1.09857 -0.57728,-0.001 -1.39164,0.36867 -1.80966,0.82287 -0.41807,0.45421 -1.1636,0.82471 -1.65679,0.8233 -0.49317,-0.001 -1.6247,0.35459 -2.51447,0.79103 -0.88978,0.4365 -5.04573,2.28889 -9.23538,4.11647 -4.18968,1.82753 -8.02906,3.54875 -8.532,3.82493 -0.50295,0.27616 -2.28533,1.0213 -3.96093,1.65582 -1.67561,0.63453 -3.45807,1.39533 -3.96103,1.69072 -0.503,0.29523 -1.59446,0.79841 -2.42542,1.11795 -0.831,0.31951 -1.65389,0.75812 -1.82871,0.9747 -0.17482,0.21667 -1.48942,0.85859 -2.92139,1.42668 -1.43194,0.56808 -3.35056,1.06137 -4.26366,1.09622 -0.91304,0.035 -2.98525,-0.24594 -4.60485,-0.62404 z m 7.16209,-90.4162 c 0.10239,-35.690871 0.0138,-40.018386 -0.82401,-40.020747 -0.51626,-0.0015 -4.97649,2.780347 -9.91161,6.181812 -4.93511,3.401432 -9.70594,6.679121 -10.601813,7.283777 -0.895929,0.604656 -3.501541,2.404608 -5.790192,3.999908 -2.288693,1.595272 -7.179938,4.942732 -10.869388,7.438771 -3.689449,2.496038 -9.042813,6.138214 -11.896354,8.093727 -2.853581,1.955513 -6.218339,4.173531 -7.477304,4.928982 -1.258926,0.7554 -2.21822,1.71731 -2.131784,2.13754 0.08651,0.4202 1.083146,1.21711 2.214824,1.77083 1.131692,0.55373 3.558851,2.20412 5.39372,3.66746 1.83487,1.46334 4.326037,3.28438 5.53598,4.04678 1.209904,0.76238 2.418006,1.69726 2.684601,2.07746 0.266683,0.38027 0.881961,0.69248 1.367442,0.69384 0.485509,0.001 0.88201,0.25879 0.881114,0.57178 -8.95e-4,0.31312 0.477227,0.72267 1.062505,0.91007 0.585306,0.18755 2.294081,1.24419 3.797294,2.34846 1.503269,1.10422 3.826619,2.73868 5.163091,3.63214 1.33643,0.89345 2.566449,1.76217 2.733356,1.93048 0.166893,0.16832 1.988722,1.49067 4.048537,2.9385 2.059787,1.44786 4.012805,2.63322 4.340033,2.63415 0.327103,9e-4 0.72563,0.31247 0.885427,0.69247 0.159659,0.37993 2.580491,2.1811 5.379291,4.00263 2.7988,1.8215 5.30686,3.62942 5.57344,4.01759 0.26665,0.38812 0.81345,0.71331 1.21523,0.72263 0.4018,0.0106 1.68705,0.75142 2.8561,1.64912 1.16905,0.89772 2.60487,1.64029 3.19067,1.65009 1.0047,0.0155 1.07159,-2.25007 1.1798,-40.00025 z"
       id="path1616" /></g></svg>
